<svg width="38" height="34" viewBox="0 0 38 34" fill="none" xmlns="http://www.w3.org/2000/svg">
<g id="Group">
<path id="Vector" d="M22.879 14.6411H21.6694V16.4556H22.879V14.6411Z" fill="#333333"/>
<path id="Vector_2" d="M13.2016 4.35889C11.4071 4.35889 9.91674 5.66957 9.62702 7.38308H7.15323H4.28629C2.19899 7.38308 0.5 9.08207 0.5 11.1694V16.1532C0.5 17.3206 1.4496 18.2702 2.61694 18.2702C2.94294 18.2702 3.24839 18.1897 3.52419 18.0579V27.0403C3.52419 28.2077 4.47379 29.1573 5.64113 29.1573C6.23387 29.1573 6.76855 28.9111 7.15323 28.5174C7.5379 28.9111 8.07258 29.1573 8.66532 29.1573C8.99133 29.1573 9.29677 29.0768 9.57258 28.945V31.2742C9.57258 32.4415 10.5222 33.3911 11.6895 33.3911C12.2823 33.3911 12.8169 33.145 13.2016 32.7512C13.5863 33.145 14.121 33.3911 14.7137 33.3911C15.8811 33.3911 16.8306 32.4415 16.8306 31.2742H15.621C15.621 31.7744 15.2139 32.1815 14.7137 32.1815C14.2135 32.1815 13.8065 31.7744 13.8065 31.2742V23.1089H12.5968V31.2742C12.5968 31.7744 12.1897 32.1815 11.6895 32.1815C11.1893 32.1815 10.7823 31.7744 10.7823 31.2742V20.3871V20.0847V14.6411H9.57258V20.0847V20.3871C9.57258 20.8873 9.16553 21.2944 8.66532 21.2944C8.16512 21.2944 7.75807 20.8873 7.75807 20.3871V18.875V15.4032C7.75807 13.9825 8.91391 12.8266 10.3347 12.8266H16.0686V11.617H13.2016H10.7823V10.6855C11.4252 11.2625 12.2714 11.617 13.2016 11.617C15.203 11.617 16.8306 9.98933 16.8306 7.98792C16.8306 5.98651 15.203 4.35889 13.2016 4.35889ZM8.66532 22.504C8.99133 22.504 9.29677 22.4236 9.57258 22.2917V27.0403C9.57258 27.5405 9.16553 27.9476 8.66532 27.9476C8.16512 27.9476 7.75807 27.5405 7.75807 27.0403V22.2917C8.03387 22.4236 8.33932 22.504 8.66532 22.504ZM6.54839 15.4032V18.875V20.3871V27.0403C6.54839 27.5405 6.14133 27.9476 5.64113 27.9476C5.14093 27.9476 4.73387 27.5405 4.73387 27.0403V16.1532V15.8508V10.4073H3.52419V15.8508V16.1532C3.52419 16.6534 3.11714 17.0605 2.61694 17.0605C2.11673 17.0605 1.70968 16.6534 1.70968 16.1532V11.1694C1.70968 9.7486 2.86552 8.59276 4.28629 8.59276H9.62762C9.74436 9.28348 10.0558 9.90707 10.5046 10.4073H9.57258V11.6938C7.84879 12.0476 6.54839 13.5766 6.54839 15.4032ZM13.2016 10.4073C11.8673 10.4073 10.7823 9.32219 10.7823 7.98792C10.7823 6.65364 11.8673 5.56856 13.2016 5.56856C14.5359 5.56856 15.621 6.65364 15.621 7.98792C15.621 9.32219 14.5359 10.4073 13.2016 10.4073Z" fill="#333333"/>
<path id="Vector_3" d="M16.8307 14.6411H15.621V16.4556H16.8307V14.6411Z" fill="#333333"/>
<path id="Vector_4" d="M10.7823 3.75403C10.7823 1.75262 9.15464 0.125 7.15323 0.125C5.15181 0.125 3.52419 1.75262 3.52419 3.75403C3.52419 5.75544 5.15181 7.38306 7.15323 7.38306C9.15464 7.38306 10.7823 5.75544 10.7823 3.75403ZM7.15323 6.17339C5.81895 6.17339 4.73387 5.08831 4.73387 3.75403C4.73387 2.41976 5.81895 1.33468 7.15323 1.33468C8.4875 1.33468 9.57258 2.41976 9.57258 3.75403C9.57258 5.08831 8.4875 6.17339 7.15323 6.17339Z" fill="#333333"/>
<path id="Vector_5" d="M34.9758 3.75403C34.9758 1.75262 33.3482 0.125 31.3468 0.125C29.3454 0.125 27.7177 1.75262 27.7177 3.75403C27.7177 5.75544 29.3454 7.38306 31.3468 7.38306C33.3482 7.38306 34.9758 5.75544 34.9758 3.75403ZM31.3468 6.17339C30.0125 6.17339 28.9274 5.08831 28.9274 3.75403C28.9274 2.41976 30.0125 1.33468 31.3468 1.33468C32.681 1.33468 33.7661 2.41976 33.7661 3.75403C33.7661 5.08831 32.681 6.17339 31.3468 6.17339Z" fill="#333333"/>
<path id="Vector_6" d="M34.2137 7.38308H31.3468H28.873C28.5839 5.66957 27.0936 4.35889 25.2984 4.35889C23.297 4.35889 21.6694 5.98651 21.6694 7.98792C21.6694 9.98933 23.297 11.617 25.2984 11.617C26.2286 11.617 27.0748 11.2625 27.7177 10.6855V11.617H25.2984H22.4315V12.8266H28.1653C29.5861 12.8266 30.7419 13.9825 30.7419 15.4032V18.875V20.3871C30.7419 20.8873 30.3349 21.2944 29.8347 21.2944C29.3345 21.2944 28.9274 20.8873 28.9274 20.3871V20.0847V14.6411H27.7177V20.0847V20.3871V31.2742C27.7177 31.7744 27.3107 32.1815 26.8105 32.1815C26.3103 32.1815 25.9032 31.7744 25.9032 31.2742V23.1089H24.6936V31.2742C24.6936 31.7744 24.2865 32.1815 23.7863 32.1815C23.2861 32.1815 22.879 31.7744 22.879 31.2742H21.6694C21.6694 32.4415 22.619 33.3911 23.7863 33.3911C24.379 33.3911 24.9137 33.145 25.2984 32.7512C25.6831 33.145 26.2177 33.3911 26.8105 33.3911C27.9778 33.3911 28.9274 32.4415 28.9274 31.2742V28.945C29.2032 29.0768 29.5087 29.1573 29.8347 29.1573C30.4274 29.1573 30.9621 28.9111 31.3468 28.5174C31.7315 28.9111 32.2661 29.1573 32.8589 29.1573C34.0262 29.1573 34.9758 28.2077 34.9758 27.0403V18.0579C35.2516 18.1897 35.5571 18.2702 35.8831 18.2702C37.0504 18.2702 38 17.3206 38 16.1532V11.1694C38 9.08207 36.301 7.38308 34.2137 7.38308ZM25.2984 10.4073C23.9641 10.4073 22.879 9.32219 22.879 7.98792C22.879 6.65364 23.9641 5.56856 25.2984 5.56856C26.6327 5.56856 27.7177 6.65364 27.7177 7.98792C27.7177 9.32219 26.6327 10.4073 25.2984 10.4073ZM29.8347 27.9476C29.3345 27.9476 28.9274 27.5405 28.9274 27.0403V22.2917C29.2032 22.4236 29.5087 22.504 29.8347 22.504C30.1607 22.504 30.4661 22.4236 30.7419 22.2917V27.0403C30.7419 27.5405 30.3349 27.9476 29.8347 27.9476ZM36.7903 16.1532C36.7903 16.6534 36.3833 17.0605 35.8831 17.0605C35.3829 17.0605 34.9758 16.6534 34.9758 16.1532V15.8508V10.4073H33.7661V15.8508V16.1532V27.0403C33.7661 27.5405 33.3591 27.9476 32.8589 27.9476C32.3587 27.9476 31.9516 27.5405 31.9516 27.0403V20.3871V18.875V15.4032C31.9516 13.5766 30.6512 12.0476 28.9274 11.6944V10.4073H27.996C28.4448 9.90707 28.7563 9.28348 28.873 8.59276H34.2143C35.6351 8.59276 36.7909 9.7486 36.7909 11.1694V16.1532H36.7903Z" fill="#333333"/>
</g>
</svg>
