<svg width="38" height="39" viewBox="0 0 38 39" fill="none" xmlns="http://www.w3.org/2000/svg">
<g id="Group">
<g id="Group_2">
<path id="Vector" d="M8.46532 13.9316C10.1356 13.9316 11.4896 12.5776 11.4896 10.9073C11.4896 9.23706 10.1356 7.88306 8.46532 7.88306C6.79507 7.88306 5.44107 9.23706 5.44107 10.9073C5.44107 12.5776 6.79507 13.9316 8.46532 13.9316Z" fill="#F9BA48"/>
<path id="Vector_2" d="M11.2741 9.55995L10.4986 8.63092L7.29486 11.3012L6.47525 10.4823L5.62003 11.3376L7.21989 12.938L11.2741 9.55995Z" fill="#333333"/>
<path id="Vector_3" d="M22.3773 9.09271H13.3049V10.3024H22.3773V9.09271Z" fill="#333333"/>
<path id="Vector_4" d="M23.587 11.512H13.3049V12.7217H23.587V11.512Z" fill="#333333"/>
<path id="Vector_5" d="M11.2741 15.6083L10.4986 14.6793L7.29486 17.3496L6.47525 16.5307L5.62003 17.386L7.21989 18.9864L11.2741 15.6083Z" fill="#333333"/>
<path id="Vector_6" d="M26.0064 15.1411H13.3049V16.3507H26.0064V15.1411Z" fill="#333333"/>
<path id="Vector_7" d="M15.7242 17.5604H13.3049V18.7701H15.7242V17.5604Z" fill="#333333"/>
<path id="Vector_8" d="M26.0064 17.5604H16.9339V18.7701H26.0064V17.5604Z" fill="#333333"/>
<path id="Vector_9" d="M11.2741 21.6567L10.4986 20.7277L7.29486 23.398L6.47525 22.579L5.62003 23.4344L7.21989 25.0348L11.2741 21.6567Z" fill="#333333"/>
<path id="Vector_10" d="M26.0064 21.1895H13.3049V22.3991H26.0064V21.1895Z" fill="#333333"/>
<path id="Vector_11" d="M22.3773 23.6088H13.3049V24.8184H22.3773V23.6088Z" fill="#333333"/>
<path id="Vector_12" d="M26.0055 23.6088H23.5862V24.8184H26.0055V23.6088Z" fill="#333333"/>
<path id="Vector_13" d="M26.0055 9.09271H23.5862V10.3024H26.0055V9.09271Z" fill="#333333"/>
<path id="Vector_14" d="M35.6838 28.4475H34.4741H33.2644H32.0547H30.8451V3.64925C30.8451 1.98164 29.4884 0.625 27.821 0.625H3.02272C1.35511 0.625 -0.00152588 1.98164 -0.00152588 3.64925C-0.00152588 5.31685 1.35511 6.67349 3.02259 6.67349V38.125H28.4257V34.4958H30.8451V32.0765H32.0547H33.2644H34.4741H35.6838C36.6841 32.0765 37.4982 31.2624 37.4982 30.2619C37.4982 29.2614 36.6841 28.4475 35.6838 28.4475ZM29.6354 3.64925V28.4476H28.4257V5.46369H27.8208C26.8204 5.46369 26.0064 4.64963 26.0064 3.64912C26.0064 2.64861 26.8204 1.83454 27.8208 1.83454C28.8212 1.83454 29.6354 2.64873 29.6354 3.64925ZM1.20815 3.64925C1.20815 2.64886 2.02221 1.83467 3.02259 1.83467H25.4172C25.0331 2.34151 24.7967 2.96577 24.7967 3.64925C24.7967 4.33273 25.0332 4.95686 25.4172 5.46382H3.02272C2.02234 5.46369 1.20815 4.64963 1.20815 3.64925ZM4.23239 36.9152V6.67337H27.2162V28.4475H10.1827L4.73923 30.2621L10.1827 32.0766H27.2161V36.9153H4.23239V36.9152ZM8.56425 30.2621L9.67586 29.8912V30.6321L8.56425 30.2621ZM29.6354 33.2862H28.4257V32.0765H29.6354V33.2862ZM30.8451 30.8668H10.8855V29.6572H30.8451V30.8668ZM33.2644 30.8668H32.0547V29.6572H33.2644V30.8668ZM35.6838 30.8668H34.4741V29.6572H35.6838C36.0176 29.6572 36.2885 29.9288 36.2885 30.2621C36.2885 30.5953 36.0177 30.8668 35.6838 30.8668Z" fill="#333333"/>
</g>
</g>
</svg>
