<svg width="38" height="39" viewBox="0 0 38 39" fill="none" xmlns="http://www.w3.org/2000/svg">
<g id="Group">
<g id="Group_2">
<path id="Vector" d="M16.3582 20.8037H15.7609C15.4312 20.8037 15.1636 20.5361 15.1636 20.2064V19.0118C15.1636 18.6821 15.4312 18.4145 15.7609 18.4145H19.942V16.0253C19.942 15.7332 20.0507 15.4692 20.2251 15.2614L13.3717 4.78003L4.67927 18.0746C3.33237 20.1347 2.62039 22.5239 2.62039 24.9847C2.62039 30.9129 7.44355 35.7361 13.3717 35.7361C14.3877 35.7361 15.3906 35.5891 16.3582 35.3102V20.8037Z" fill="#F9BA48"/>
</g>
<g id="Group_3">
<path id="Vector_2" d="M36.0704 17.817H32.4866V16.0251C32.4866 15.0371 31.6826 14.2332 30.6947 14.2332H22.5918L13.3731 0.625L3.01545 15.9152C1.19489 18.6024 0.232651 21.7388 0.232651 24.9845C0.232651 32.2303 6.12736 38.125 13.3731 38.125C14.5253 38.125 15.6638 37.9685 16.7664 37.6746C17.1582 37.9554 17.6343 38.125 18.1515 38.125H33.6812C34.9988 38.125 36.0704 37.0535 36.0704 35.7358V21.4007C36.7292 21.4007 37.265 20.865 37.265 20.2061V19.0115C37.265 18.3527 36.7292 17.817 36.0704 17.817ZM31.292 16.0251V17.817H20.5407V16.0251C20.5407 15.696 20.8089 15.4278 21.138 15.4278H30.6947C31.0238 15.4278 31.292 15.696 31.292 16.0251ZM1.42724 24.9845C1.42724 21.9783 2.31841 19.0737 4.00457 16.5847L13.3731 2.75496L21.1487 14.2332H21.138C20.1501 14.2332 19.3461 15.0371 19.3461 16.0251V17.817H15.7623C15.1035 17.817 14.5677 18.3527 14.5677 19.0115V20.2061C14.5677 20.865 15.1035 21.4007 15.7623 21.4007V35.7358C15.7623 36.0602 15.8286 36.369 15.9463 36.6515C15.1053 36.836 14.2428 36.9304 13.3731 36.9304C6.78618 36.9304 1.42724 31.5721 1.42724 24.9845ZM31.292 33.3466V21.4007H32.4866V33.3466H31.292ZM30.0974 33.3466H28.9028V21.4007H30.0974V33.3466ZM27.7082 33.3466H26.5136V21.4007H27.7082V33.3466ZM25.3191 33.3466H24.1245V21.4007H25.3191V33.3466ZM22.9299 33.3466H21.7353V21.4007H22.9299V33.3466ZM20.5407 33.3466H19.3461V21.4007H20.5407V33.3466ZM18.1515 33.3466H16.9569V21.4007H18.1515V33.3466ZM33.6812 36.9304H18.1515C17.4927 36.9304 16.9569 36.3946 16.9569 35.7358V34.5412H34.8758V35.7358C34.8758 36.3946 34.34 36.9304 33.6812 36.9304ZM34.8758 33.3466H33.6812V21.4007H34.8758V33.3466ZM15.7623 20.2061V19.0115H36.0704L36.071 20.2061H15.7623Z" fill="#333333"/>
<path id="Vector_3" d="M13.3731 21.4024C13.3731 19.426 11.7658 17.8187 9.78931 17.8187C7.81286 17.8187 6.20554 19.426 6.20554 21.4024C6.20554 23.3789 7.81286 24.9862 9.78931 24.9862C11.7658 24.9862 13.3731 23.3789 13.3731 21.4024ZM7.40013 21.4024C7.40013 20.0848 8.47167 19.0133 9.78931 19.0133C11.1069 19.0133 12.1785 20.0848 12.1785 21.4024C12.1785 22.7201 11.1069 23.7916 9.78931 23.7916C8.47167 23.7916 7.40013 22.7201 7.40013 21.4024Z" fill="#333333"/>
<path id="Vector_4" d="M13.3737 17.2193C14.6913 17.2193 15.7629 16.1477 15.7629 14.8301C15.7629 13.5125 14.6913 12.4409 13.3737 12.4409C12.0561 12.4409 10.9845 13.5125 10.9845 14.8301C10.9845 16.1477 12.0561 17.2193 13.3737 17.2193ZM13.3737 13.6355C14.0325 13.6355 14.5683 14.1713 14.5683 14.8301C14.5683 15.4889 14.0325 16.0247 13.3737 16.0247C12.7149 16.0247 12.1791 15.4889 12.1791 14.8301C12.1791 14.1713 12.7149 13.6355 13.3737 13.6355Z" fill="#333333"/>
<path id="Vector_5" d="M12.1798 26.1793C10.8622 26.1793 9.79066 27.2508 9.79066 28.5684C9.79066 29.8861 10.8622 30.9576 12.1798 30.9576C13.4975 30.9576 14.569 29.8861 14.569 28.5684C14.569 27.2508 13.4975 26.1793 12.1798 26.1793ZM12.1798 29.763C11.521 29.763 10.9853 29.2273 10.9853 28.5684C10.9853 27.9096 11.521 27.3738 12.1798 27.3738C12.8387 27.3738 13.3744 27.9096 13.3744 28.5684C13.3744 29.2273 12.8387 29.763 12.1798 29.763Z" fill="#333333"/>
</g>
</g>
</svg>
